<svg width="36" height="35" viewBox="0 0 36 35" fill="none" xmlns="http://www.w3.org/2000/svg">
<g clip-path="url(#clip0_4_85)">
<path d="M6.102 26.25H29.586C30.3088 26.25 31.0209 26.0808 31.6621 25.7566C32.3034 25.4325 32.8549 24.9629 33.27 24.3877C33.6851 23.8124 33.9515 23.1485 34.0468 22.4519C34.1421 21.7554 34.0635 21.0468 33.8175 20.386L29.5395 8.88708C28.8089 6.33166 27.2374 4.07923 25.0655 2.47431C22.8935 0.869385 20.2406 0.000309281 17.5125 1.48358e-09C14.6726 -4.31554e-05 11.9176 0.941482 9.70232 2.66912C7.48707 4.39677 5.94404 6.80722 5.328 9.5025L1.803 20.5858C1.59546 21.2402 1.54881 21.9328 1.66679 22.6079C1.78477 23.2829 2.06409 23.9217 2.48228 24.4727C2.90047 25.0236 3.44585 25.4715 4.07454 25.7802C4.70324 26.0889 5.39768 26.2498 6.102 26.25Z" fill="#03C988"/>
<path d="M6.102 26.25H29.586C30.3088 26.25 31.0209 26.0808 31.6621 25.7566C32.3034 25.4325 32.8549 24.9629 33.27 24.3877C33.6851 23.8124 33.9515 23.1485 34.0468 22.4519C34.1421 21.7554 34.0635 21.0468 33.8175 20.386L29.5395 8.88708C28.8089 6.33166 27.2374 4.07923 25.0655 2.47431C22.8935 0.869385 20.2406 0.000309281 17.5125 1.48358e-09C14.6726 -4.31554e-05 11.9176 0.941482 9.70232 2.66912C7.48707 4.39677 5.94404 6.80722 5.328 9.5025L1.803 20.5858C1.59546 21.2402 1.54881 21.9328 1.66679 22.6079C1.78477 23.2829 2.06409 23.9217 2.48228 24.4727C2.90047 25.0236 3.44585 25.4715 4.07454 25.7802C4.70324 26.0889 5.39768 26.2498 6.102 26.25Z" fill="black" fill-opacity="0.2"/>
<path d="M10.65 29.1667C10.9943 30.815 11.9141 32.297 13.2536 33.3614C14.5931 34.4258 16.27 35.0073 18 35.0073C19.73 35.0073 21.4069 34.4258 22.7464 33.3614C24.0859 32.297 25.0057 30.815 25.35 29.1667H10.65Z" fill="#03C988"/>
<path d="M10.65 29.1667C10.9943 30.815 11.9141 32.297 13.2536 33.3614C14.5931 34.4258 16.27 35.0073 18 35.0073C19.73 35.0073 21.4069 34.4258 22.7464 33.3614C24.0859 32.297 25.0057 30.815 25.35 29.1667H10.65Z" fill="black" fill-opacity="0.2"/>
</g>
<defs>
<clipPath id="clip0_4_85">
<rect width="36" height="35" fill="white"/>
</clipPath>
</defs>
</svg>
