<svg width="40" height="42" viewBox="0 0 40 42" fill="none" xmlns="http://www.w3.org/2000/svg">
<g clip-path="url(#clip0_4_44)">
<path d="M33.3333 0H6.66667C2.98333 0 0 3.1325 0 7V28C0 31.8675 2.98333 35 6.66667 35H11.5333L17.7833 40.53C18.4167 41.125 19.2167 41.4225 20.0167 41.4225C20.8167 41.4225 21.5667 41.1425 22.1667 40.565L28.5833 35H33.3333C37.0167 35 40 31.8675 40 28V7C40 3.1325 37.0167 0 33.3333 0ZM28.6167 16.835L25 19.9325L26.5 24.71C26.7 25.3575 26.5 26.075 25.9833 26.4775C25.4667 26.8975 24.7667 26.915 24.2167 26.5475L20.0167 23.6775L15.8833 26.5825C15.6333 26.7575 15.3333 26.845 15.0333 26.845C14.7167 26.845 14.3833 26.74 14.1167 26.53C13.6 26.1275 13.3833 25.41 13.5833 24.7625L15.0167 19.9325L11.3833 16.835C10.9 16.3975 10.7167 15.6975 10.9333 15.0675C11.15 14.4375 11.7333 14.0175 12.3667 14.0175H16.95L18.5667 9.45C18.7833 8.82 19.3667 8.4 20 8.4C20.6333 8.4 21.2167 8.82 21.4333 9.45L23.05 14.0175H27.6333C28.2667 14.0175 28.85 14.4375 29.0667 15.0675C29.2833 15.6975 29.1 16.415 28.6167 16.8525V16.835Z" fill="white"/>
</g>
<defs>
<clipPath id="clip0_4_44">
<rect width="40" height="42" fill="white"/>
</clipPath>
</defs>
</svg>
