<svg width="197" height="198" viewBox="0 0 197 198" fill="none" xmlns="http://www.w3.org/2000/svg">
<path d="M18.9447 166.798L17.2097 159.941C14.1334 158.634 10.9861 157.503 7.78269 156.551L7.5637 159.738L6.67556 156.227C2.70275 155.089 0 154.589 0 154.589C0 154.589 3.64987 168.5 11.3077 179.135L20.2298 180.706L13.2985 181.707C14.2618 182.869 15.297 183.968 16.398 185C27.5367 195.36 39.9434 200.114 44.1087 195.617C48.2741 191.12 42.621 179.076 31.4823 168.716C28.0292 165.504 23.6914 162.927 19.3491 160.898L18.9447 166.798Z" fill="#F2F2F2"/>
<path d="M35.4448 159.35L37.4966 152.581C35.5373 149.87 33.4269 147.271 31.1755 144.797L29.3442 147.412L30.3947 143.946C27.5803 140.915 25.525 139.087 25.525 139.087C25.525 139.087 21.4745 152.886 22.543 165.957L29.3706 171.923L22.9193 169.19C23.1451 170.683 23.4643 172.161 23.8752 173.614C28.0662 188.253 36.2348 198.748 42.12 197.056C48.0053 195.364 49.3791 182.126 45.1881 167.487C43.8889 162.949 41.5049 158.496 38.8344 154.51L35.4448 159.35Z" fill="#F2F2F2"/>
<path d="M137.466 46.9063H136.383V17.1961C136.383 14.9379 135.939 12.7018 135.077 10.6155C134.215 8.52913 132.951 6.63344 131.357 5.03663C129.764 3.43982 127.872 2.17316 125.79 1.30898C123.708 0.44479 121.476 0 119.223 0H56.4061C51.8549 0 47.4901 1.81173 44.2718 5.03663C41.0536 8.26153 39.2457 12.6354 39.2457 17.1961V180.191C39.2457 182.45 39.6895 184.686 40.5519 186.772C41.4143 188.858 42.6783 190.754 44.2718 192.351C45.8653 193.948 47.7571 195.214 49.8391 196.079C51.9211 196.943 54.1526 197.388 56.4061 197.388H119.223C123.774 197.387 128.139 195.576 131.357 192.351C134.575 189.126 136.383 184.752 136.383 180.191V68.0546H137.465L137.466 46.9063Z" fill="#E6E6E6"/>
<path d="M119.915 4.47217H111.716C112.093 5.39861 112.237 6.40378 112.135 7.3991C112.033 8.39442 111.689 9.34935 111.132 10.1798C110.575 11.0102 109.823 11.6906 108.941 12.161C108.06 12.6314 107.077 12.8775 106.079 12.8774H70.0916C69.0931 12.8774 68.11 12.6313 67.2289 12.1608C66.3477 11.6903 65.5956 11.0099 65.0386 10.1795C64.4817 9.34915 64.1371 8.39425 64.0352 7.39897C63.9334 6.40369 64.0773 5.39857 64.4544 4.47217H56.796C53.3972 4.47217 50.1375 5.82515 47.7342 8.23348C45.3309 10.6418 43.9807 13.9082 43.9807 17.3141V180.073C43.9807 183.479 45.3309 186.745 47.7342 189.153C50.1375 191.562 53.3972 192.915 56.796 192.915H119.915C123.314 192.915 126.574 191.562 128.977 189.153C131.38 186.745 132.731 183.479 132.731 180.073V17.3138C132.73 13.908 131.38 10.6416 128.977 8.23338C126.574 5.82511 123.314 4.47217 119.915 4.47217Z" fill="white"/>
<path d="M80.3125 69.3069C80.3123 68.1692 80.6112 67.0516 81.179 66.0664C81.7469 65.0813 82.5636 64.2634 83.5472 63.6951C82.5641 63.1262 81.449 62.8266 80.3137 62.8264C79.1785 62.8263 78.0633 63.1257 77.0801 63.6944C76.097 64.2631 75.2805 65.0811 74.7129 66.0663C74.1452 67.0514 73.8464 68.1689 73.8464 69.3065C73.8464 70.4441 74.1452 71.5616 74.7129 72.5467C75.2805 73.5319 76.097 74.3499 77.0801 74.9186C78.0633 75.4873 79.1785 75.7867 80.3137 75.7866C81.449 75.7864 82.5641 75.4868 83.5472 74.9179C82.5637 74.3497 81.7469 73.532 81.1791 72.547C80.6113 71.562 80.3124 70.4445 80.3125 69.3069Z" fill="#CCCCCC"/>
<path d="M88.442 69.3069C88.4417 68.1692 88.7406 67.0516 89.3084 66.0664C89.8763 65.0812 90.6931 64.2634 91.6766 63.6951C90.6936 63.1262 89.5784 62.8266 88.4432 62.8264C87.308 62.8263 86.1927 63.1257 85.2096 63.6944C84.2264 64.2631 83.4099 65.0811 82.8423 66.0663C82.2747 67.0514 81.9758 68.1689 81.9758 69.3065C81.9758 70.4441 82.2747 71.5616 82.8423 72.5467C83.4099 73.5319 84.2264 74.3499 85.2096 74.9186C86.1927 75.4873 87.308 75.7867 88.4432 75.7866C89.5784 75.7864 90.6936 75.4868 91.6766 74.9179C90.6931 74.3497 89.8764 73.532 89.3085 72.547C88.7407 71.562 88.4418 70.4445 88.442 69.3069Z" fill="#CCCCCC"/>
<path d="M96.3868 75.7867C99.9582 75.7867 102.853 72.8855 102.853 69.3066C102.853 65.7278 99.9582 62.8266 96.3868 62.8266C92.8154 62.8266 89.9202 65.7278 89.9202 69.3066C89.9202 72.8855 92.8154 75.7867 96.3868 75.7867Z" fill="#03C988"/>
<path d="M107.194 89.5464H69.5052C69.1464 89.546 68.8024 89.403 68.5487 89.1487C68.295 88.8945 68.1523 88.5498 68.1518 88.1902V50.423C68.1523 50.0635 68.295 49.7188 68.5487 49.4645C68.8024 49.2103 69.1464 49.0673 69.5052 49.0669H107.194C107.553 49.0673 107.897 49.2103 108.151 49.4645C108.404 49.7188 108.547 50.0635 108.547 50.423V88.1902C108.547 88.5498 108.404 88.8945 108.151 89.1487C107.897 89.403 107.553 89.546 107.194 89.5464ZM69.5052 49.6097C69.2899 49.6099 69.0835 49.6957 68.9313 49.8482C68.7791 50.0007 68.6935 50.2076 68.6932 50.4233V88.1905C68.6935 88.4062 68.7791 88.6131 68.9313 88.7656C69.0835 88.9181 69.2899 89.0039 69.5052 89.0041H107.194C107.409 89.0039 107.616 88.9181 107.768 88.7656C107.92 88.6131 108.006 88.4062 108.006 88.1905V50.4233C108.006 50.2076 107.92 50.0007 107.768 49.8482C107.616 49.6957 107.409 49.6099 107.194 49.6097H69.5052Z" fill="#CCCCCC"/>
<path d="M115.609 118.497H57.806V119.039H115.609V118.497Z" fill="#CCCCCC"/>
<path d="M59.6315 115.11C60.6397 115.11 61.457 114.291 61.457 113.28C61.457 112.27 60.6397 111.451 59.6315 111.451C58.6233 111.451 57.806 112.27 57.806 113.28C57.806 114.291 58.6233 115.11 59.6315 115.11Z" fill="#03C988"/>
<path d="M115.609 136.788H57.806V137.331H115.609V136.788Z" fill="#CCCCCC"/>
<path d="M59.6315 133.401C60.6397 133.401 61.457 132.582 61.457 131.572C61.457 130.562 60.6397 129.743 59.6315 129.743C58.6233 129.743 57.806 130.562 57.806 131.572C57.806 132.582 58.6233 133.401 59.6315 133.401Z" fill="#03C988"/>
<path d="M114.552 157.618H96.2842C95.9686 157.617 95.6661 157.492 95.443 157.268C95.2199 157.045 95.0944 156.741 95.094 156.425V150.009C95.0944 149.693 95.2199 149.39 95.443 149.166C95.6661 148.943 95.9686 148.817 96.2842 148.817H114.552C114.867 148.817 115.17 148.943 115.393 149.166C115.616 149.39 115.741 149.693 115.742 150.009V156.425C115.741 156.741 115.616 157.045 115.393 157.268C115.17 157.492 114.867 157.617 114.552 157.618Z" fill="#03C988"/>
<path d="M65.5861 115.11C66.5943 115.11 67.4116 114.291 67.4116 113.28C67.4116 112.27 66.5943 111.451 65.5861 111.451C64.5779 111.451 63.7606 112.27 63.7606 113.28C63.7606 114.291 64.5779 115.11 65.5861 115.11Z" fill="#03C988"/>
<path d="M71.5407 115.11C72.5489 115.11 73.3661 114.291 73.3661 113.28C73.3661 112.27 72.5489 111.451 71.5407 111.451C70.5325 111.451 69.7152 112.27 69.7152 113.28C69.7152 114.291 70.5325 115.11 71.5407 115.11Z" fill="#03C988"/>
<path d="M65.5861 133.401C66.5943 133.401 67.4116 132.582 67.4116 131.572C67.4116 130.562 66.5943 129.743 65.5861 129.743C64.5779 129.743 63.7606 130.562 63.7606 131.572C63.7606 132.582 64.5779 133.401 65.5861 133.401Z" fill="#03C988"/>
<path d="M71.5407 133.401C72.5489 133.401 73.3661 132.582 73.3661 131.572C73.3661 130.562 72.5489 129.743 71.5407 129.743C70.5325 129.743 69.7152 130.562 69.7152 131.572C69.7152 132.582 70.5325 133.401 71.5407 133.401Z" fill="#03C988"/>
<path d="M149.348 129.723C149.477 129.783 149.602 129.853 149.721 129.932L161.583 124.858L162.007 121.727L166.747 121.698L166.467 128.88L150.809 133.029C150.776 133.138 150.737 133.245 150.691 133.349C150.465 133.834 150.101 134.24 149.645 134.517C149.189 134.795 148.661 134.931 148.128 134.909C147.595 134.886 147.08 134.707 146.649 134.393C146.217 134.079 145.888 133.644 145.702 133.143C145.517 132.641 145.483 132.096 145.605 131.576C145.728 131.056 146.001 130.583 146.39 130.218C146.78 129.853 147.268 129.611 147.794 129.523C148.321 129.435 148.861 129.505 149.348 129.723Z" fill="#FFB8B8"/>
<path d="M168.471 194.805H165.228L163.686 182.272L168.471 182.272L168.471 194.805Z" fill="#FFB8B8"/>
<path d="M162.912 193.876H169.165V197.822H158.975C158.975 196.775 159.39 195.772 160.128 195.032C160.866 194.292 161.868 193.876 162.912 193.876Z" fill="#2F2E41"/>
<path d="M181.081 193.887L177.854 194.205L175.093 181.884L179.855 181.414L181.081 193.887Z" fill="#FFB8B8"/>
<path d="M175.459 193.509L181.682 192.895L182.068 196.821L171.926 197.822C171.876 197.306 171.927 196.786 172.077 196.29C172.227 195.794 172.473 195.333 172.801 194.932C173.129 194.532 173.533 194.2 173.989 193.956C174.445 193.711 174.944 193.56 175.459 193.509Z" fill="#2F2E41"/>
<path d="M169.373 108.434C172.961 108.434 175.869 105.52 175.869 101.925C175.869 98.3296 172.961 95.4152 169.373 95.4152C165.786 95.4152 162.877 98.3296 162.877 101.925C162.877 105.52 165.786 108.434 169.373 108.434Z" fill="#FFB8B8"/>
<path d="M164.504 192.27C164.225 192.271 163.955 192.173 163.741 191.994C163.528 191.814 163.384 191.565 163.336 191.29C161.658 181.954 156.172 151.428 156.04 150.582C156.037 150.563 156.036 150.543 156.036 150.524V148.248C156.036 148.165 156.062 148.084 156.11 148.016L156.835 146.999C156.869 146.95 156.914 146.91 156.967 146.881C157.019 146.853 157.078 146.836 157.137 146.834C161.269 146.64 174.801 146.071 175.454 146.889C176.111 147.712 175.879 150.204 175.826 150.695L175.828 150.746L181.908 189.705C181.955 190.016 181.879 190.333 181.695 190.587C181.511 190.842 181.234 191.014 180.925 191.066L177.128 191.693C176.845 191.738 176.556 191.68 176.312 191.53C176.068 191.38 175.886 191.146 175.799 190.873C174.624 187.112 170.687 174.463 169.322 169.568C169.313 169.537 169.294 169.51 169.267 169.492C169.24 169.475 169.208 169.467 169.176 169.472C169.144 169.476 169.115 169.492 169.094 169.517C169.073 169.541 169.062 169.572 169.063 169.605C169.131 174.271 169.296 186.175 169.352 190.287L169.359 190.73C169.361 191.03 169.251 191.319 169.051 191.542C168.85 191.765 168.574 191.904 168.276 191.932L164.615 192.265C164.577 192.269 164.54 192.27 164.504 192.27Z" fill="#2F2E41"/>
<path d="M165.251 110.994C164.117 111.669 163.439 112.91 163.049 114.173C162.329 116.511 161.895 118.928 161.758 121.371L161.346 128.686L156.253 148.078C160.667 151.821 163.213 150.97 169.155 147.909C175.097 144.848 175.776 148.93 175.776 148.93L176.964 132.429L178.661 114.398C178.28 113.939 177.849 113.523 177.376 113.16C175.807 111.937 173.981 111.087 172.037 110.674C170.092 110.261 168.079 110.296 166.15 110.776L165.251 110.994Z" fill="#03C988"/>
<path d="M163.596 133.64C163.733 133.692 163.866 133.754 163.993 133.826L175.723 127.943L175.917 124.756L180.756 124.422L181.015 131.687L165.34 136.882C165.212 137.432 164.92 137.93 164.503 138.31C164.086 138.689 163.563 138.933 163.004 139.007C162.445 139.082 161.877 138.985 161.375 138.728C160.873 138.471 160.461 138.067 160.193 137.57C159.926 137.073 159.816 136.506 159.878 135.944C159.94 135.383 160.171 134.854 160.54 134.427C160.91 134 161.4 133.697 161.946 133.556C162.492 133.415 163.067 133.445 163.596 133.64Z" fill="#FFB8B8"/>
<path d="M178.576 114.481C181.462 115.502 181.971 126.56 181.971 126.56C178.576 124.688 174.501 127.75 174.501 127.75C174.501 127.75 173.653 124.858 172.634 121.116C172.326 120.063 172.29 118.95 172.527 117.879C172.765 116.808 173.268 115.815 173.992 114.992C173.992 114.992 175.691 113.46 178.576 114.481Z" fill="#03C988"/>
<path d="M175.198 103.646C174.389 102.997 173.284 104.177 173.284 104.177L172.637 98.3371C172.637 98.3371 168.59 98.8229 166 98.175C163.41 97.5271 163.005 100.527 163.005 100.527C162.872 99.3153 162.845 98.0941 162.924 96.8774C163.086 95.4175 165.191 93.9576 168.914 92.9843C172.637 92.0109 174.579 96.2286 174.579 96.2286C177.169 97.5261 176.007 104.295 175.198 103.646Z" fill="#2F2E41"/>
</svg>
