<svg width="185" height="147" viewBox="0 0 185 147" fill="none" xmlns="http://www.w3.org/2000/svg">
<g clip-path="url(#clip0_7_194)">
<path d="M42.0999 74.9573C48.2049 74.9573 53.1539 70.0083 53.1539 63.9033C53.1539 57.7983 48.2049 52.8493 42.0999 52.8493C35.9949 52.8493 31.0459 57.7983 31.0459 63.9033C31.0459 70.0083 35.9949 74.9573 42.0999 74.9573Z" fill="#FF6584"/>
<path d="M110.581 76.4195C110.581 98.1824 97.6434 105.781 81.684 105.781C65.7246 105.781 52.7869 98.1824 52.7869 76.4195C52.7869 54.6566 81.684 26.9708 81.684 26.9708C81.684 26.9708 110.581 54.6566 110.581 76.4195Z" fill="#03C988"/>
<path d="M80.6313 102.452L80.9272 84.2385L93.2439 61.7057L80.9736 81.3814L81.1067 73.1918L89.5952 56.8896L81.1419 71.0246L81.3812 56.2953L90.471 43.3167L81.4188 53.9792L81.5682 26.9709L80.6287 62.7249L80.706 61.25L71.4642 47.1041L80.5578 64.0813L79.6967 80.5315L79.671 80.0949L69.0171 65.2084L79.6388 81.6373L79.531 83.6946L79.5117 83.7255L79.5205 83.8944L77.3359 125.63H80.2548L80.605 104.073L91.2006 87.6839L80.6313 102.452Z" fill="#3F3D56"/>
<path d="M138.463 96.9746C138.463 118.738 125.525 126.336 109.566 126.336C93.6063 126.336 80.6686 118.738 80.6686 96.9746C80.6686 75.2118 109.566 47.526 109.566 47.526C109.566 47.526 138.463 75.2118 138.463 96.9746Z" fill="#3F3D56"/>
<path d="M108.513 123.007L108.809 104.794L121.126 82.2609L108.855 101.936L108.988 93.747L117.477 77.4448L109.024 91.5796V91.5798L109.263 76.8503L118.353 63.8719L109.3 74.5343L109.45 47.5259L108.51 83.2801L108.588 81.8052L99.3459 67.6593L108.44 84.6365L107.578 101.087L107.553 100.65L96.8988 85.7636L107.521 102.192L107.413 104.25L107.393 104.281L107.402 104.45L105.218 146.185H108.136L108.487 124.628L119.082 108.239L108.513 123.007Z" fill="#F2F2F2"/>
<path d="M84.124 96.9746C84.124 118.738 71.1863 126.336 55.2269 126.336C39.2675 126.336 26.3298 118.738 26.3298 96.9746C26.3298 75.2118 55.2269 47.526 55.2269 47.526C55.2269 47.526 84.124 75.2118 84.124 96.9746Z" fill="#3F3D56"/>
<path d="M54.1742 123.007L54.4702 104.794L66.7869 82.2609L54.5166 101.936L54.6495 93.747L63.1382 77.4448L54.6849 91.5796V91.5798L54.9241 76.8503L64.0138 63.8719L54.9616 74.5343L55.1112 47.5259L54.1717 83.2801L54.2489 81.8052L45.0073 67.6593L54.1007 84.6365L53.2395 101.087L53.214 100.65L42.5599 85.7636L53.1816 102.192L53.074 104.25L53.0547 104.281L53.0636 104.45L50.8787 146.185H53.7976L54.1478 124.628L64.7437 108.239L54.1742 123.007Z" fill="#F2F2F2"/>
<path d="M82.4197 146.001C68.5987 146.001 55.2053 141.209 44.5215 132.441C33.8377 123.673 26.5246 111.472 23.8282 97.9164C21.1319 84.361 23.2191 70.29 29.7342 58.101C36.2493 45.912 46.7893 36.359 59.5582 31.07C72.3271 25.7809 86.5349 25.0829 99.7608 29.0949C112.987 33.1069 124.412 41.5807 132.091 53.0724C139.769 64.5641 143.226 78.3627 141.871 92.1172C140.516 105.872 134.434 118.731 124.661 128.504C119.127 134.068 112.544 138.48 105.293 141.483C98.0424 144.487 90.2679 146.022 82.4197 146.001ZM82.4197 26.9789C49.731 26.9789 23.1368 53.573 23.1368 86.2618C23.1368 118.951 49.731 145.545 82.4197 145.545C115.108 145.545 141.703 118.951 141.703 86.2618C141.703 53.573 115.108 26.9789 82.4197 26.9789Z" fill="#2F2E41"/>
<path d="M131.268 120.344V145.784H33.5802V120.344L82.424 94.9048L82.5258 94.9576L131.268 120.344Z" fill="#F2F2F2"/>
<path opacity="0.1" d="M131.268 120.344V145.784H82.5258V94.9576L131.268 120.344Z" fill="black"/>
<path d="M78.2519 110.474L74.5888 111.857V106.403L78.2519 104.798V110.474Z" fill="#3F3D56"/>
<path d="M37.7523 125.737L36.5312 126.199V122.888L37.7523 122.348V125.737Z" fill="#3F3D56"/>
<path d="M42.0261 124.313L40.6014 124.847V121.26L42.0261 120.635V124.313Z" fill="#3F3D56"/>
<path d="M46.7069 122.481L45.0788 123.093V119.225L46.7069 118.508V122.481Z" fill="#3F3D56"/>
<path d="M52.4055 120.243L50.3702 121.011V116.986L52.4055 116.093V120.243Z" fill="#3F3D56"/>
<path d="M59.3249 117.597L56.8828 118.52V114.137L59.3249 113.066V117.597Z" fill="#3F3D56"/>
<path d="M67.6692 114.544L64.82 115.617V110.677L67.6692 109.428V114.544Z" fill="#3F3D56"/>
<path d="M37.7523 132.453L36.5312 132.76V129.401L37.7523 129.015V132.453Z" fill="#3F3D56"/>
<path d="M42.0261 131.436L40.6014 131.793V128.18L42.0261 127.731V131.436Z" fill="#3F3D56"/>
<path d="M46.7069 130.215L45.0788 130.624V126.755L46.7069 126.242V130.215Z" fill="#3F3D56"/>
<path d="M52.4055 128.79L50.3702 129.301V125.127L52.4055 124.486V128.79Z" fill="#3F3D56"/>
<path d="M59.3249 126.958L56.8828 127.575V123.092L59.3249 122.324V126.958Z" fill="#3F3D56"/>
<path d="M67.6692 124.923L64.6163 125.691V120.65L67.6692 119.689V124.923Z" fill="#3F3D56"/>
<path d="M78.2519 122.278L74.5888 123.199V117.597L78.2519 116.448V122.278Z" fill="#3F3D56"/>
<path d="M78.2519 133.878L74.5888 134.344V128.79L78.2519 128.097V133.878Z" fill="#3F3D56"/>
<path d="M37.7523 138.966L36.5312 139.123V135.913L37.7523 135.681V138.966Z" fill="#3F3D56"/>
<path d="M42.0261 138.559L40.6014 138.739V135.303L42.0261 135.035V138.559Z" fill="#3F3D56"/>
<path d="M46.7069 137.948L45.0788 138.154V134.285L46.7069 133.975V137.948Z" fill="#3F3D56"/>
<path d="M52.4055 137.134L50.3702 137.394V133.268L52.4055 132.879V137.134Z" fill="#3F3D56"/>
<path d="M59.3249 136.32L56.8828 136.63V132.046L59.3249 131.581V136.32Z" fill="#3F3D56"/>
<path d="M67.6692 135.303L64.6163 135.689V130.622L67.6692 130.042V135.303Z" fill="#3F3D56"/>
<path d="M127.299 125.737L128.521 126.199V122.888L127.299 122.348V125.737Z" fill="#3F3D56"/>
<path d="M123.025 124.313L124.45 124.847V121.26L123.025 120.635V124.313Z" fill="#3F3D56"/>
<path d="M118.345 122.481L119.973 123.093V119.225L118.345 118.508V122.481Z" fill="#3F3D56"/>
<path d="M112.646 120.243L114.681 121.011V116.986L112.646 116.093V120.243Z" fill="#3F3D56"/>
<path d="M105.727 117.597L108.169 118.52V114.137L105.727 113.066V117.597Z" fill="#3F3D56"/>
<path d="M97.3824 114.544L100.232 115.617V110.677L97.3824 109.428V114.544Z" fill="#3F3D56"/>
<path d="M127.299 132.453L128.521 132.76V129.401L127.299 129.015V132.453Z" fill="#3F3D56"/>
<path d="M123.025 131.436L124.45 131.793V128.18L123.025 127.731V131.436Z" fill="#3F3D56"/>
<path d="M118.345 130.215L119.973 130.624V126.755L118.345 126.242V130.215Z" fill="#3F3D56"/>
<path d="M112.646 128.79L114.681 129.301V125.127L112.646 124.486V128.79Z" fill="#3F3D56"/>
<path d="M105.727 126.958L108.169 127.575V123.092L105.727 122.324V126.958Z" fill="#3F3D56"/>
<path d="M97.3824 124.923L100.435 125.691V120.65L97.3824 119.689V124.923Z" fill="#3F3D56"/>
<path d="M86.7997 122.278L90.463 123.199V117.597L86.7997 116.448V122.278Z" fill="#3F3D56"/>
<path d="M86.7997 133.878L90.463 134.344V128.79L86.7997 128.097V133.878Z" fill="#3F3D56"/>
<path d="M127.299 138.966L128.521 139.123V135.913L127.299 135.681V138.966Z" fill="#3F3D56"/>
<path d="M123.025 138.559L124.45 138.739V135.303L123.025 135.035V138.559Z" fill="#3F3D56"/>
<path d="M118.345 137.948L119.973 138.154V134.285L118.345 133.975V137.948Z" fill="#3F3D56"/>
<path d="M112.646 137.134L114.681 137.394V133.268L112.646 132.879V137.134Z" fill="#3F3D56"/>
<path d="M105.727 136.32L108.169 136.63V132.046L105.727 131.581V136.32Z" fill="#3F3D56"/>
<path d="M97.3824 135.303L100.435 135.689V130.622L97.3824 130.042V135.303Z" fill="#3F3D56"/>
<path d="M90.2593 111.898L86.5962 110.517V104.775L90.2593 106.382V111.898Z" fill="#3F3D56"/>
<path d="M124.657 141.254H124.358V146.031H124.657V141.254Z" fill="#2F2E41"/>
<path d="M128.175 142.554H127.963V145.94H128.175V142.554Z" fill="#2F2E41"/>
<path d="M131.301 142.968H131.115V145.943H131.301V142.968Z" fill="#2F2E41"/>
<path d="M115.902 139.739V145.886L111.934 145.88L107.965 145.873V138.966L111.934 139.353L115.902 139.739Z" fill="#3F3D56"/>
<path d="M49.1492 145.886L57.0862 145.873V138.966L49.1492 139.739V145.886Z" fill="#3F3D56"/>
<path opacity="0.1" d="M115.902 139.739V145.886L111.934 145.88V139.353L115.902 139.739Z" fill="black"/>
<path d="M82.017 140.289H81.61V145.987H82.017V140.289Z" fill="#2F2E41"/>
<path d="M84.1624 138.26C84.1624 140.257 83.0957 141.923 81.8135 141.981C80.5669 142.036 79.5815 140.542 79.5815 138.644C79.5815 136.747 82.017 131.538 82.017 131.538C82.017 131.538 84.1624 136.263 84.1624 138.26Z" fill="#03C988"/>
<path d="M34.1322 142.115H33.8894V145.514H34.1322V142.115Z" fill="#2F2E41"/>
<path d="M35.4118 140.905C35.4118 142.096 34.7756 143.09 34.0108 143.124C33.2672 143.157 32.6794 142.266 32.6794 141.134C32.6794 140.002 34.1322 136.895 34.1322 136.895C34.1322 136.895 35.4118 139.714 35.4118 140.905Z" fill="#03C988"/>
<path d="M126.15 141.442C126.15 142.575 125.436 143.46 124.508 143.416C123.522 143.37 122.677 142.307 122.677 141.044C122.677 139.781 124.508 136.626 124.508 136.626C124.508 136.626 126.15 140.31 126.15 141.442Z" fill="#03C988"/>
<path d="M129.233 142.688C129.233 143.49 128.727 144.117 128.069 144.087C127.37 144.054 126.772 143.3 126.772 142.405C126.772 141.511 128.069 139.275 128.069 139.275C128.069 139.275 129.233 141.885 129.233 142.688Z" fill="#03C988"/>
<path d="M132.231 143.085C132.231 143.791 131.786 144.342 131.208 144.314C130.594 144.286 130.068 143.623 130.068 142.837C130.068 142.05 131.208 140.085 131.208 140.085C131.208 140.085 132.231 142.38 132.231 143.085Z" fill="#03C988"/>
<path d="M133.676 32.7857C133.676 32.7857 131.695 38.7285 132.796 40.0491C133.896 41.3697 126.193 36.0872 126.193 36.0872L130.375 31.245L133.676 32.7857Z" fill="#A0616A"/>
<path d="M129.159 32.776C134.617 32.776 139.041 28.3516 139.041 22.8938C139.041 17.436 134.617 13.0116 129.159 13.0116C123.701 13.0116 119.277 17.436 119.277 22.8938C119.277 28.3516 123.701 32.776 129.159 32.776Z" fill="#2F2E41"/>
<path d="M167.572 99.697L162.51 103.659L159.648 99.0366L164.711 95.5151L167.572 99.697Z" fill="#A0616A"/>
<path d="M160.419 129.521L161.739 135.904L165.481 140.966C165.481 140.966 175.606 144.048 168.783 145.589C161.96 147.129 160.419 144.488 160.419 144.488L155.577 140.306V146.029H152.495L151.835 137.885C151.835 137.885 151.395 135.464 153.375 132.823L153.816 128.861L160.419 129.521Z" fill="#2F2E41"/>
<path d="M134.887 50.504L136.648 60.6287C136.648 60.6287 155.356 58.6478 156.677 62.3896C157.998 66.1313 158.438 67.2318 158.438 67.2318L154.696 68.5524L152.935 65.2509C152.399 65.061 151.83 64.9825 151.262 65.0204C150.694 65.0582 150.14 65.2116 149.634 65.471C147.873 66.3514 132.466 68.5524 131.365 65.6911C130.265 62.8298 127.183 52.2648 127.183 52.2648L131.805 48.5231L134.887 50.504Z" fill="#A0616A"/>
<path opacity="0.1" d="M134.887 50.504L136.648 60.6287C136.648 60.6287 155.356 58.6478 156.677 62.3896C157.998 66.1313 158.438 67.2318 158.438 67.2318L154.696 68.5524L152.935 65.2509C152.399 65.061 151.83 64.9825 151.262 65.0204C150.694 65.0582 150.14 65.2116 149.634 65.471C147.873 66.3514 132.466 68.5524 131.365 65.6911C130.265 62.8298 127.183 52.2648 127.183 52.2648L131.805 48.5231L134.887 50.504Z" fill="black"/>
<path d="M145.232 79.7777L146.772 85.0602L150.734 105.31C150.734 105.31 151.174 120.277 151.835 122.038C152.495 123.798 152.495 124.018 151.835 124.679C151.174 125.339 149.854 127.54 151.835 128.861C153.816 130.181 160.859 131.722 161.079 130.181C161.299 128.641 161.299 126.219 161.079 125.119C160.859 124.018 161.739 106.85 161.739 106.85L159.098 80.6581L150.074 76.4762L145.232 79.7777Z" fill="#2F2E41"/>
<path opacity="0.1" d="M145.232 79.7777L146.772 85.0602L150.734 105.31C150.734 105.31 151.174 120.277 151.835 122.038C152.495 123.798 152.495 124.018 151.835 124.679C151.174 125.339 149.854 127.54 151.835 128.861C153.816 130.181 160.859 131.722 161.079 130.181C161.299 128.641 161.299 126.219 161.079 125.119C160.859 124.018 161.739 106.85 161.739 106.85L159.098 80.6581L150.074 76.4762L145.232 79.7777Z" fill="black"/>
<path d="M154.696 59.088L159.538 68.3323C159.538 68.3323 187.271 80.6581 184.85 85.7205C182.429 90.7829 169.003 100.247 169.003 100.247C169.003 100.247 168.342 103.989 166.362 102.889C164.381 101.788 159.538 96.0653 159.979 95.405C160.419 94.7447 161.96 93.204 162.62 93.4241C163.28 93.6442 170.984 87.7014 170.984 87.7014L157.778 84.3999C157.778 84.3999 141.93 83.9597 141.05 76.4762C140.169 68.9927 141.05 67.672 141.05 67.672L139.949 65.2509L148.973 59.7483L154.696 59.088Z" fill="#2F2E41"/>
<path d="M161.519 95.6251L156.897 99.8071C156.897 99.8071 152.935 98.0463 150.514 98.7066C148.093 99.3669 143.911 99.8071 143.911 99.8071L144.571 103.549L150.187 102.513L145.672 108.831C145.672 108.831 145.672 118.736 148.533 118.736C151.395 118.736 150.514 112.793 150.514 112.793L159.318 105.97C159.318 105.97 163.72 104.209 164.161 104.209C164.601 104.209 161.519 95.6251 161.519 95.6251Z" fill="#2F2E41"/>
<path d="M132.796 34.5465C136.929 34.5465 140.279 31.196 140.279 27.063C140.279 22.93 136.929 19.5795 132.796 19.5795C128.663 19.5795 125.312 22.93 125.312 27.063C125.312 31.196 128.663 34.5465 132.796 34.5465Z" fill="#A0616A"/>
<path d="M125.422 32.8957C125.422 32.8957 128.944 32.0153 130.045 32.8957C131.145 33.7762 131.365 35.7571 132.906 35.9772C134.447 36.1973 135.767 36.1973 135.987 36.4174C136.207 36.6375 141.27 42.8004 141.27 42.8004C141.27 42.8004 144.351 44.5612 145.012 46.9823C145.672 49.4035 152.275 57.5473 153.155 58.4277C154.036 59.3081 147.433 63.7102 145.232 65.2509C143.031 66.7916 136.648 67.4519 134.667 63.9303C132.686 60.4086 121.901 37.5179 125.422 32.8957Z" fill="#575A89"/>
<path d="M133.786 47.2024L135.547 57.3272C135.547 57.3272 154.256 55.3463 155.577 59.088C156.897 62.8298 157.337 63.9303 157.337 63.9303L153.596 65.2509L151.835 61.9493C151.298 61.7594 150.729 61.681 150.161 61.7189C149.594 61.7567 149.04 61.91 148.533 62.1695C146.772 63.0499 131.365 65.2509 130.265 62.3896C129.164 59.5282 126.083 48.9633 126.083 48.9633L130.705 45.2215L133.786 47.2024Z" fill="#A0616A"/>
<path d="M129.58 33.8218C129.58 33.8218 134.887 45.0014 134.447 48.0829C134.006 51.1643 132.466 48.9633 132.466 48.9633C132.466 48.9633 130.485 45.8818 129.604 47.6427C128.724 49.4035 127.623 51.8246 126.743 51.6045C125.863 51.3844 121.02 35.0968 123.662 33.5561C126.303 32.0153 129.58 33.8218 129.58 33.8218Z" fill="#575A89"/>
<path d="M118.453 19.7644C123.911 19.7644 128.335 15.34 128.335 9.88222C128.335 4.42442 123.911 0 118.453 0C112.995 0 108.571 4.42442 108.571 9.88222C108.571 15.34 112.995 19.7644 118.453 19.7644Z" fill="#2F2E41"/>
<path d="M109.929 18.0653C111.208 18.9898 112.69 19.5945 114.251 19.8288C115.811 20.0632 117.406 19.9203 118.9 19.4123C120.394 18.9042 121.745 18.0458 122.839 16.9086C123.933 15.7715 124.739 14.3889 125.19 12.8763C125.019 14.2318 124.57 15.5372 123.869 16.7102C123.169 17.8831 122.233 18.8981 121.121 19.691C120.008 20.4839 118.743 21.0376 117.406 21.3171C116.069 21.5966 114.688 21.5957 113.351 21.3147C112.014 21.0336 110.75 20.4785 109.639 19.6842C108.527 18.8899 107.592 17.8738 106.893 16.7001C106.194 15.5263 105.746 14.2204 105.577 12.8647C105.409 11.509 105.523 10.1331 105.912 8.82372C105.691 10.5828 105.947 12.3691 106.654 13.9952C107.361 15.6212 108.492 17.0271 109.929 18.0653Z" fill="#2F2E41"/>
<path d="M127.126 31.7878C131.128 31.7878 134.373 28.5432 134.373 24.5408C134.373 20.5385 131.128 17.2939 127.126 17.2939C123.124 17.2939 119.879 20.5385 119.879 24.5408C119.879 28.5432 123.124 31.7878 127.126 31.7878Z" fill="#2F2E41"/>
<path d="M132.618 26.8467C136.165 26.8467 139.041 24.5976 139.041 21.8232C139.041 19.0489 136.165 16.7998 132.618 16.7998C129.07 16.7998 126.194 19.0489 126.194 21.8232C126.194 24.5976 129.07 26.8467 132.618 26.8467Z" fill="#2F2E41"/>
<path d="M132.906 30.3646C133.696 30.3646 134.337 29.2313 134.337 27.8334C134.337 26.4354 133.696 25.3022 132.906 25.3022C132.116 25.3022 131.475 26.4354 131.475 27.8334C131.475 29.2313 132.116 30.3646 132.906 30.3646Z" fill="#A0616A"/>
<path d="M152.544 65.1547C152.544 65.1547 156.441 62.9192 157.164 63.4798C157.888 64.0403 158.209 65.7944 158.209 65.7944L153.706 67.562L152.385 65.1408L152.544 65.1547Z" fill="#2F2E41"/>
</g>
<defs>
<clipPath id="clip0_7_194">
<rect width="185" height="146.185" fill="white"/>
</clipPath>
</defs>
</svg>
