<svg width="43" height="41" viewBox="0 0 43 41" fill="none" xmlns="http://www.w3.org/2000/svg">
<g clip-path="url(#clip0_4_47)">
<path d="M40.2856 18.749L21.5 29.4978L2.71437 18.749C2.30691 18.5158 1.81901 18.4466 1.35801 18.5565C0.897018 18.6664 0.500686 18.9464 0.256206 19.3349C0.0117264 19.7234 -0.0608748 20.1886 0.0543741 20.6282C0.169623 21.0677 0.463281 21.4456 0.870748 21.6787L20.5791 32.9537C20.8577 33.1134 21.1767 33.1977 21.5018 33.1977C21.8269 33.1977 22.1458 33.1134 22.4245 32.9537L42.1328 21.6787C42.5403 21.4456 42.834 21.0677 42.9492 20.6282C43.0645 20.1886 42.9919 19.7234 42.7474 19.3349C42.5029 18.9464 42.1066 18.6664 41.6456 18.5565C41.1846 18.4466 40.6967 18.5158 40.2892 18.749H40.2856Z" fill="white"/>
<path d="M40.2856 26.5526L21.5 37.2997L2.71438 26.5526C2.51262 26.4372 2.28899 26.3608 2.05627 26.3278C1.82354 26.2947 1.58628 26.3057 1.35802 26.3602C1.12975 26.4146 0.914967 26.5113 0.725919 26.6449C0.53687 26.7784 0.377263 26.9462 0.256209 27.1386C0.135154 27.3309 0.0550246 27.5442 0.0203941 27.7661C-0.0142363 27.988 -0.0026891 28.2142 0.0543764 28.4318C0.169625 28.8714 0.463284 29.2493 0.87075 29.4824L20.5791 40.7574C20.8577 40.917 21.1767 41.0014 21.5018 41.0014C21.8269 41.0014 22.1458 40.917 22.4245 40.7574L42.1328 29.4824C42.5403 29.2493 42.834 28.8714 42.9492 28.4318C43.0645 27.9923 42.9919 27.5271 42.7474 27.1386C42.5029 26.75 42.1066 26.47 41.6456 26.3602C41.1846 26.2503 40.6967 26.3195 40.2892 26.5526H40.2856Z" fill="white"/>
<path d="M21.5002 25.2372C20.5337 25.2367 19.5856 24.9857 18.7571 24.5112L0.869116 14.2765C0.604214 14.1247 0.385027 13.91 0.232861 13.6535C0.0806945 13.3969 0.000724792 13.1072 0.000724792 12.8125C0.000724792 12.5178 0.0806945 12.2281 0.232861 11.9715C0.385027 11.715 0.604214 11.5003 0.869116 11.3485L18.7571 1.11383C19.5855 0.639301 20.5337 0.388611 21.5002 0.388611C22.4666 0.388611 23.4148 0.639301 24.2432 1.11383L42.1312 11.3485C42.3961 11.5003 42.6153 11.715 42.7675 11.9715C42.9196 12.2281 42.9996 12.5178 42.9996 12.8125C42.9996 13.1072 42.9196 13.3969 42.7675 13.6535C42.6153 13.91 42.3961 14.1247 42.1312 14.2765L24.2432 24.5112C23.4148 24.9857 22.4666 25.2367 21.5002 25.2372ZM5.27482 12.8125L20.6043 21.5814C20.8751 21.7358 21.1847 21.8173 21.5002 21.8173C21.8157 21.8173 22.1252 21.7358 22.396 21.5814L37.7255 12.8125L22.396 4.04362C22.1252 3.88919 21.8157 3.80764 21.5002 3.80764C21.1847 3.80764 20.8751 3.88919 20.6043 4.04362L5.27482 12.8125Z" fill="white"/>
</g>
<defs>
<clipPath id="clip0_4_47">
<rect width="43" height="41" fill="white"/>
</clipPath>
</defs>
</svg>
